<svg width="483" height="192" viewBox="0 0 483 192" fill="none" xmlns="http://www.w3.org/2000/svg">
<g style="mix-blend-mode:multiply" filter="url(#filter0_f)">
<rect x="6" y="6" width="471" height="180" rx="5" fill="#EF9DBB"/>
<rect x="6" y="6" width="471" height="180" rx="5" stroke="#120202" stroke-width="3"/>
</g>
<g style="mix-blend-mode:multiply">
<path d="M49.9424 77.3499C52.4001 77.3499 54.7275 77.5696 56.9248 78.0091C59.1221 78.4323 61.0345 79.0345 62.6621 79.8157C64.306 80.597 65.6081 81.5329 66.5684 82.6234C67.5286 83.6976 68.0088 84.8857 68.0088 86.1878V90.4847H61.5635V88.0921C61.5635 87.3922 61.2949 86.7249 60.7578 86.0901C60.2207 85.4391 59.4476 84.8776 58.4385 84.4056C57.4456 83.9173 56.2331 83.5348 54.8008 83.2581C53.3685 82.9651 51.749 82.8187 49.9424 82.8187C48.2008 82.8187 46.6139 82.957 45.1816 83.2337C43.7493 83.4941 42.5205 83.8603 41.4951 84.3323C40.4697 84.8043 39.6722 85.3659 39.1025 86.0169C38.5492 86.6517 38.2725 87.3434 38.2725 88.0921V105.328C38.2725 106.045 38.5492 106.72 39.1025 107.355C39.6722 107.99 40.4697 108.543 41.4951 109.015C42.5205 109.471 43.7493 109.837 45.1816 110.114C46.6139 110.374 48.2008 110.504 49.9424 110.504C51.749 110.504 53.3685 110.366 54.8008 110.089C56.2331 109.796 57.4456 109.414 58.4385 108.942C59.4476 108.47 60.2207 107.924 60.7578 107.306C61.2949 106.671 61.5635 106.012 61.5635 105.328V102.887H68.0088V107.184C68.0088 108.047 67.7891 108.868 67.3496 109.65C66.9102 110.415 66.2917 111.123 65.4941 111.774C64.7129 112.425 63.7689 113.011 62.6621 113.532C61.5716 114.036 60.3509 114.476 59 114.85C57.6654 115.208 56.2331 115.485 54.7031 115.68C53.1732 115.875 51.5863 115.973 49.9424 115.973C48.2985 115.973 46.7116 115.875 45.1816 115.68C43.6517 115.485 42.2113 115.208 40.8604 114.85C39.5257 114.476 38.305 114.036 37.1982 113.532C36.1077 113.011 35.1637 112.425 34.3662 111.774C33.585 111.123 32.9746 110.415 32.5352 109.65C32.0957 108.868 31.876 108.047 31.876 107.184V86.1878C31.876 85.3252 32.0957 84.5032 32.5352 83.722C32.9746 82.9407 33.585 82.2246 34.3662 81.5735C35.1637 80.9225 36.1077 80.3366 37.1982 79.8157C38.305 79.2949 39.5257 78.8554 40.8604 78.4974C42.2113 78.123 43.6517 77.8382 45.1816 77.6429C46.7116 77.4476 48.2985 77.3499 49.9424 77.3499ZM109.587 87.3597C112.093 87.3597 114.242 87.5713 116.032 87.9944C117.823 88.4013 119.287 89.0198 120.427 89.8499C121.582 90.6637 122.421 91.681 122.941 92.9017C123.479 94.1224 123.747 95.5465 123.747 97.1741V115.192H117.351V98.6878C117.351 97.7763 117.229 96.9951 116.984 96.3441C116.74 95.6767 116.407 95.1152 115.983 94.6595C115.576 94.1875 115.096 93.805 114.543 93.512C113.99 93.2191 113.412 92.9993 112.81 92.8528C112.224 92.6901 111.621 92.5843 111.003 92.5355C110.384 92.4704 109.799 92.4378 109.245 92.4378C108.203 92.4378 107.211 92.511 106.267 92.6575C105.323 92.804 104.427 93.0075 103.581 93.2679C102.735 93.512 101.937 93.805 101.188 94.1468C100.44 94.4886 99.7399 94.8467 99.0889 95.221V115.192H92.6924V78.0335H99.0889V90.5823C99.8376 90.1266 100.603 89.7034 101.384 89.3128C102.165 88.9222 102.979 88.5804 103.825 88.2874C104.688 87.9944 105.591 87.7666 106.535 87.6038C107.495 87.4411 108.513 87.3597 109.587 87.3597ZM156.146 115.192H149.944V87.3597H156.146V115.192ZM153.069 77.6917C154.274 77.6917 155.226 77.8952 155.926 78.3021C156.626 78.6927 156.976 79.3193 156.976 80.1819V81.4026C156.976 82.1839 156.626 82.7454 155.926 83.0872C155.226 83.429 154.274 83.5999 153.069 83.5999C151.914 83.5999 150.978 83.429 150.262 83.0872C149.562 82.7454 149.212 82.1839 149.212 81.4026V80.1819C149.212 79.3193 149.562 78.6927 150.262 78.3021C150.978 77.8952 151.914 77.6917 153.069 77.6917ZM189.618 115.192H184.052V78.5218H189.618V115.192ZM222.749 115.192H217.183V78.5218H222.749V115.192ZM265.548 77.9847C267.761 77.9847 269.902 78.123 271.969 78.3997C274.052 78.6601 275.916 79.1159 277.56 79.7669C279.22 80.4017 280.579 81.2643 281.637 82.3548C282.711 83.4453 283.338 84.8043 283.517 86.4319L277.169 88.1898C277.169 87.2132 276.835 86.4157 276.168 85.7972C275.517 85.1624 274.646 84.666 273.556 84.3079C272.481 83.9336 271.244 83.6732 269.845 83.5267C268.461 83.3802 267.029 83.3069 265.548 83.3069C264.099 83.3069 262.675 83.372 261.275 83.5023C259.876 83.6325 258.614 83.8766 257.491 84.2347C256.384 84.5928 255.489 85.0892 254.806 85.7239C254.122 86.3587 253.78 87.1806 253.78 88.1898V94.0003H283.517V106.647C283.517 107.737 283.272 108.714 282.784 109.576C282.312 110.423 281.653 111.163 280.807 111.798C279.977 112.417 278.984 112.946 277.828 113.385C276.689 113.808 275.452 114.15 274.117 114.41C272.799 114.671 271.407 114.858 269.942 114.972C268.478 115.086 267.013 115.143 265.548 115.143C264.05 115.143 262.577 115.086 261.129 114.972C259.68 114.858 258.305 114.671 257.003 114.41C255.701 114.15 254.488 113.808 253.365 113.385C252.258 112.946 251.282 112.417 250.436 111.798C249.589 111.163 248.906 110.423 248.385 109.576C247.864 108.73 247.547 107.754 247.433 106.647L253.78 104.889C253.78 105.898 254.122 106.72 254.806 107.355C255.489 107.99 256.384 108.486 257.491 108.844C258.614 109.202 259.876 109.446 261.275 109.576C262.675 109.707 264.099 109.772 265.548 109.772C267.029 109.772 268.461 109.707 269.845 109.576C271.244 109.43 272.481 109.178 273.556 108.82C274.646 108.445 275.517 107.941 276.168 107.306C276.835 106.671 277.169 105.866 277.169 104.889V98.9319H247.433V86.4319C247.433 85.3415 247.669 84.3812 248.141 83.5511C248.629 82.7047 249.288 81.9723 250.118 81.3538C250.965 80.7191 251.965 80.1901 253.121 79.7669C254.277 79.3275 255.522 78.9775 256.856 78.7171C258.207 78.4567 259.615 78.2695 261.08 78.1556C262.561 78.0416 264.05 77.9847 265.548 77.9847ZM325.095 87.3597C327.601 87.3597 329.75 87.5713 331.54 87.9944C333.33 88.4013 334.795 89.0198 335.935 89.8499C337.09 90.6637 337.928 91.681 338.449 92.9017C338.986 94.1224 339.255 95.5465 339.255 97.1741V115.192H332.858V98.6878C332.858 97.7763 332.736 96.9951 332.492 96.3441C332.248 95.6767 331.914 95.1152 331.491 94.6595C331.084 94.1875 330.604 93.805 330.051 93.512C329.497 93.2191 328.92 92.9993 328.317 92.8528C327.731 92.6901 327.129 92.5843 326.511 92.5355C325.892 92.4704 325.306 92.4378 324.753 92.4378C323.711 92.4378 322.718 92.511 321.774 92.6575C320.83 92.804 319.935 93.0075 319.089 93.2679C318.243 93.512 317.445 93.805 316.696 94.1468C315.948 94.4886 315.248 94.8467 314.597 95.221V115.192H308.2V78.0335H314.597V90.5823C315.345 90.1266 316.11 89.7034 316.892 89.3128C317.673 88.9222 318.487 88.5804 319.333 88.2874C320.196 87.9944 321.099 87.7666 322.043 87.6038C323.003 87.4411 324.021 87.3597 325.095 87.3597ZM380.931 86.9202C382.298 86.9202 383.657 86.9853 385.008 87.1155C386.375 87.2457 387.685 87.4573 388.938 87.7503C390.192 88.0433 391.364 88.4095 392.454 88.8489C393.545 89.2884 394.489 89.8174 395.286 90.4359C396.1 91.0543 396.735 91.7705 397.19 92.5843C397.646 93.3818 397.874 94.277 397.874 95.2698V107.916C397.874 108.795 397.646 109.601 397.19 110.333C396.735 111.066 396.1 111.725 395.286 112.311C394.489 112.881 393.545 113.377 392.454 113.8C391.364 114.223 390.192 114.573 388.938 114.85C387.685 115.127 386.375 115.33 385.008 115.46C383.641 115.607 382.282 115.68 380.931 115.68C379.58 115.68 378.221 115.607 376.854 115.46C375.503 115.33 374.201 115.127 372.947 114.85C371.694 114.573 370.522 114.223 369.432 113.8C368.357 113.377 367.413 112.881 366.6 112.311C365.802 111.725 365.175 111.074 364.72 110.358C364.264 109.625 364.036 108.812 364.036 107.916V95.2698C364.036 94.277 364.264 93.3818 364.72 92.5843C365.175 91.7705 365.802 91.0543 366.6 90.4359C367.413 89.8174 368.357 89.2884 369.432 88.8489C370.522 88.4095 371.694 88.0433 372.947 87.7503C374.201 87.4573 375.503 87.2457 376.854 87.1155C378.221 86.9853 379.58 86.9202 380.931 86.9202ZM370.237 106.354C370.237 107.103 370.547 107.754 371.165 108.307C371.8 108.844 372.622 109.3 373.631 109.674C374.64 110.032 375.779 110.301 377.049 110.48C378.335 110.659 379.629 110.748 380.931 110.748C382.298 110.748 383.616 110.651 384.886 110.455C386.172 110.26 387.311 109.983 388.304 109.625C389.297 109.251 390.086 108.795 390.672 108.258C391.274 107.705 391.575 107.07 391.575 106.354V96.1976C391.575 95.4977 391.274 94.8711 390.672 94.3177C390.086 93.748 389.297 93.276 388.304 92.9017C387.311 92.511 386.172 92.2181 384.886 92.0228C383.616 91.8112 382.298 91.7054 380.931 91.7054C379.629 91.7054 378.335 91.803 377.049 91.9984C375.779 92.1774 374.64 92.4541 373.631 92.8284C372.622 93.2028 371.8 93.6748 371.165 94.2444C370.547 94.7978 370.237 95.4489 370.237 96.1976V106.354ZM421.19 88.8245C421.646 88.6943 422.313 88.5316 423.192 88.3362C424.088 88.1409 425.146 87.9619 426.366 87.7991C427.587 87.6201 428.946 87.4736 430.443 87.3597C431.957 87.2295 433.576 87.1644 435.302 87.1644C438.362 87.1644 441.055 87.3922 443.383 87.848C445.727 88.3037 447.688 89.0768 449.267 90.1673C450.845 91.2578 452.034 92.7064 452.831 94.513C453.645 96.3196 454.052 98.5739 454.052 101.276C454.052 103.929 453.612 106.15 452.733 107.941C451.854 109.715 450.65 111.139 449.12 112.213C447.59 113.287 445.8 114.052 443.749 114.508C441.698 114.964 439.501 115.192 437.157 115.192C435.237 115.192 433.454 115.078 431.811 114.85C430.167 114.622 428.71 114.248 427.44 113.727V124.469H421.19V88.8245ZM435.595 92.389C434.537 92.389 433.593 92.4215 432.763 92.4866C431.949 92.5517 431.208 92.6413 430.541 92.7552C429.89 92.8528 429.312 92.9749 428.808 93.1214C428.303 93.2516 427.847 93.3981 427.44 93.5609V109.186C428.14 109.381 428.791 109.544 429.394 109.674C430.012 109.788 430.671 109.878 431.371 109.943C432.087 110.008 432.901 110.057 433.812 110.089C434.74 110.105 435.855 110.114 437.157 110.114C439.078 110.114 440.714 109.894 442.064 109.454C443.432 108.999 444.547 108.38 445.409 107.599C446.288 106.818 446.931 105.89 447.338 104.816C447.745 103.725 447.948 102.545 447.948 101.276C447.948 99.5504 447.672 98.1181 447.118 96.9788C446.565 95.8395 445.759 94.928 444.701 94.2444C443.643 93.5609 442.349 93.0807 440.819 92.804C439.289 92.5273 437.548 92.389 435.595 92.389Z" fill="black"/>
</g>
<g style="mix-blend-mode:multiply">
<path d="M48.5752 77.3499C51.0329 77.3499 53.3604 77.5696 55.5576 78.0091C57.7549 78.4323 59.6673 79.0345 61.2949 79.8157C62.9388 80.597 64.2409 81.5329 65.2012 82.6234C66.1615 83.6976 66.6416 84.8857 66.6416 86.1878V90.4847H60.1963V88.0921C60.1963 87.3922 59.9277 86.7249 59.3906 86.0901C58.8535 85.4391 58.0804 84.8776 57.0713 84.4056C56.0785 83.9173 54.8659 83.5348 53.4336 83.2581C52.0013 82.9651 50.3818 82.8187 48.5752 82.8187C46.8337 82.8187 45.2467 82.957 43.8145 83.2337C42.3822 83.4941 41.1533 83.8603 40.1279 84.3323C39.1025 84.8043 38.305 85.3659 37.7354 86.0169C37.182 86.6517 36.9053 87.3434 36.9053 88.0921V105.328C36.9053 106.045 37.182 106.72 37.7354 107.355C38.305 107.99 39.1025 108.543 40.1279 109.015C41.1533 109.471 42.3822 109.837 43.8145 110.114C45.2467 110.374 46.8337 110.504 48.5752 110.504C50.3818 110.504 52.0013 110.366 53.4336 110.089C54.8659 109.796 56.0785 109.414 57.0713 108.942C58.0804 108.47 58.8535 107.924 59.3906 107.306C59.9277 106.671 60.1963 106.012 60.1963 105.328V102.887H66.6416V107.184C66.6416 108.047 66.4219 108.868 65.9824 109.65C65.543 110.415 64.9245 111.123 64.127 111.774C63.3457 112.425 62.4017 113.011 61.2949 113.532C60.2044 114.036 58.9837 114.476 57.6328 114.85C56.2982 115.208 54.8659 115.485 53.3359 115.68C51.806 115.875 50.2191 115.973 48.5752 115.973C46.9313 115.973 45.3444 115.875 43.8145 115.68C42.2845 115.485 40.8441 115.208 39.4932 114.85C38.1585 114.476 36.9378 114.036 35.8311 113.532C34.7406 113.011 33.7965 112.425 32.999 111.774C32.2178 111.123 31.6074 110.415 31.168 109.65C30.7285 108.868 30.5088 108.047 30.5088 107.184V86.1878C30.5088 85.3252 30.7285 84.5032 31.168 83.722C31.6074 82.9407 32.2178 82.2246 32.999 81.5735C33.7965 80.9225 34.7406 80.3366 35.8311 79.8157C36.9378 79.2949 38.1585 78.8554 39.4932 78.4974C40.8441 78.123 42.2845 77.8382 43.8145 77.6429C45.3444 77.4476 46.9313 77.3499 48.5752 77.3499ZM108.22 87.3597C110.726 87.3597 112.875 87.5713 114.665 87.9944C116.455 88.4013 117.92 89.0198 119.06 89.8499C120.215 90.6637 121.053 91.681 121.574 92.9017C122.111 94.1224 122.38 95.5465 122.38 97.1741V115.192H115.983V98.6878C115.983 97.7763 115.861 96.9951 115.617 96.3441C115.373 95.6767 115.039 95.1152 114.616 94.6595C114.209 94.1875 113.729 93.805 113.176 93.512C112.622 93.2191 112.045 92.9993 111.442 92.8528C110.856 92.6901 110.254 92.5843 109.636 92.5355C109.017 92.4704 108.431 92.4378 107.878 92.4378C106.836 92.4378 105.843 92.511 104.899 92.6575C103.955 92.804 103.06 93.0075 102.214 93.2679C101.368 93.512 100.57 93.805 99.8213 94.1468C99.0726 94.4886 98.3727 94.8467 97.7217 95.221V115.192H91.3252V78.0335H97.7217V90.5823C98.4704 90.1266 99.2354 89.7034 100.017 89.3128C100.798 88.9222 101.612 88.5804 102.458 88.2874C103.321 87.9944 104.224 87.7666 105.168 87.6038C106.128 87.4411 107.146 87.3597 108.22 87.3597ZM154.778 115.192H148.577V87.3597H154.778V115.192ZM151.702 77.6917C152.907 77.6917 153.859 77.8952 154.559 78.3021C155.258 78.6927 155.608 79.3193 155.608 80.1819V81.4026C155.608 82.1839 155.258 82.7454 154.559 83.0872C153.859 83.429 152.907 83.5999 151.702 83.5999C150.547 83.5999 149.611 83.429 148.895 83.0872C148.195 82.7454 147.845 82.1839 147.845 81.4026V80.1819C147.845 79.3193 148.195 78.6927 148.895 78.3021C149.611 77.8952 150.547 77.6917 151.702 77.6917ZM188.251 115.192H182.685V78.5218H188.251V115.192ZM221.382 115.192H215.815V78.5218H221.382V115.192ZM268.526 74.8109V78.0823C270.447 78.1963 272.278 78.4241 274.02 78.7659C275.761 79.0915 277.307 79.5879 278.658 80.2552C280.009 80.9062 281.116 81.7363 281.979 82.7454C282.841 83.7545 283.354 84.9834 283.517 86.4319L277.169 88.1898C277.169 87.3922 276.933 86.7168 276.461 86.1634C276.005 85.5937 275.387 85.1217 274.605 84.7474C273.824 84.3568 272.905 84.0556 271.847 83.8441C270.805 83.6325 269.698 83.486 268.526 83.4046V94.0003H283.517V106.647C283.517 108.112 283.102 109.357 282.271 110.382C281.441 111.408 280.326 112.254 278.927 112.921C277.543 113.589 275.948 114.093 274.142 114.435C272.335 114.777 270.463 114.996 268.526 115.094V118.463H262.521V115.094C260.567 114.996 258.712 114.777 256.954 114.435C255.196 114.093 253.634 113.589 252.267 112.921C250.899 112.254 249.785 111.408 248.922 110.382C248.076 109.357 247.579 108.112 247.433 106.647L253.78 104.889C253.78 105.735 254.016 106.451 254.488 107.037C254.96 107.607 255.595 108.079 256.393 108.453C257.206 108.812 258.142 109.088 259.2 109.284C260.258 109.479 261.365 109.609 262.521 109.674V98.9319H247.433V86.4319C247.433 84.9834 247.848 83.7545 248.678 82.7454C249.508 81.7363 250.615 80.9062 251.998 80.2552C253.398 79.5879 255.001 79.0915 256.808 78.7659C258.631 78.4241 260.535 78.1963 262.521 78.0823V74.8109H268.526ZM268.526 98.9319V109.674C269.698 109.593 270.805 109.454 271.847 109.259C272.905 109.048 273.824 108.755 274.605 108.38C275.387 108.006 276.005 107.534 276.461 106.964C276.933 106.395 277.169 105.703 277.169 104.889V98.9319H268.526ZM253.78 94.0003H262.521V83.4046C261.365 83.486 260.258 83.6325 259.2 83.8441C258.142 84.0394 257.206 84.3242 256.393 84.6985C255.595 85.0729 254.96 85.5449 254.488 86.1146C254.016 86.6842 253.78 87.376 253.78 88.1898V94.0003ZM326.462 87.3597C328.968 87.3597 331.117 87.5713 332.907 87.9944C334.698 88.4013 336.162 89.0198 337.302 89.8499C338.457 90.6637 339.296 91.681 339.816 92.9017C340.354 94.1224 340.622 95.5465 340.622 97.1741V115.192H334.226V98.6878C334.226 97.7763 334.104 96.9951 333.859 96.3441C333.615 95.6767 333.282 95.1152 332.858 94.6595C332.451 94.1875 331.971 93.805 331.418 93.512C330.865 93.2191 330.287 92.9993 329.685 92.8528C329.099 92.6901 328.496 92.5843 327.878 92.5355C327.259 92.4704 326.674 92.4378 326.12 92.4378C325.078 92.4378 324.086 92.511 323.142 92.6575C322.198 92.804 321.302 93.0075 320.456 93.2679C319.61 93.512 318.812 93.805 318.063 94.1468C317.315 94.4886 316.615 94.8467 315.964 95.221V115.192H309.567V78.0335H315.964V90.5823C316.713 90.1266 317.478 89.7034 318.259 89.3128C319.04 88.9222 319.854 88.5804 320.7 88.2874C321.563 87.9944 322.466 87.7666 323.41 87.6038C324.37 87.4411 325.388 87.3597 326.462 87.3597ZM382.298 86.9202C383.665 86.9202 385.024 86.9853 386.375 87.1155C387.742 87.2457 389.052 87.4573 390.306 87.7503C391.559 88.0433 392.731 88.4095 393.821 88.8489C394.912 89.2884 395.856 89.8174 396.653 90.4359C397.467 91.0543 398.102 91.7705 398.558 92.5843C399.013 93.3818 399.241 94.277 399.241 95.2698V107.916C399.241 108.795 399.013 109.601 398.558 110.333C398.102 111.066 397.467 111.725 396.653 112.311C395.856 112.881 394.912 113.377 393.821 113.8C392.731 114.223 391.559 114.573 390.306 114.85C389.052 115.127 387.742 115.33 386.375 115.46C385.008 115.607 383.649 115.68 382.298 115.68C380.947 115.68 379.588 115.607 378.221 115.46C376.87 115.33 375.568 115.127 374.314 114.85C373.061 114.573 371.889 114.223 370.799 113.8C369.725 113.377 368.781 112.881 367.967 112.311C367.169 111.725 366.543 111.074 366.087 110.358C365.631 109.625 365.403 108.812 365.403 107.916V95.2698C365.403 94.277 365.631 93.3818 366.087 92.5843C366.543 91.7705 367.169 91.0543 367.967 90.4359C368.781 89.8174 369.725 89.2884 370.799 88.8489C371.889 88.4095 373.061 88.0433 374.314 87.7503C375.568 87.4573 376.87 87.2457 378.221 87.1155C379.588 86.9853 380.947 86.9202 382.298 86.9202ZM371.604 106.354C371.604 107.103 371.914 107.754 372.532 108.307C373.167 108.844 373.989 109.3 374.998 109.674C376.007 110.032 377.146 110.301 378.416 110.48C379.702 110.659 380.996 110.748 382.298 110.748C383.665 110.748 384.983 110.651 386.253 110.455C387.539 110.26 388.678 109.983 389.671 109.625C390.664 109.251 391.453 108.795 392.039 108.258C392.641 107.705 392.942 107.07 392.942 106.354V96.1976C392.942 95.4977 392.641 94.8711 392.039 94.3177C391.453 93.748 390.664 93.276 389.671 92.9017C388.678 92.511 387.539 92.2181 386.253 92.0228C384.983 91.8112 383.665 91.7054 382.298 91.7054C380.996 91.7054 379.702 91.803 378.416 91.9984C377.146 92.1774 376.007 92.4541 374.998 92.8284C373.989 93.2028 373.167 93.6748 372.532 94.2444C371.914 94.7978 371.604 95.4489 371.604 96.1976V106.354ZM422.558 88.8245C423.013 88.6943 423.681 88.5316 424.56 88.3362C425.455 88.1409 426.513 87.9619 427.733 87.7991C428.954 87.6201 430.313 87.4736 431.811 87.3597C433.324 87.2295 434.944 87.1644 436.669 87.1644C439.729 87.1644 442.423 87.3922 444.75 87.848C447.094 88.3037 449.055 89.0768 450.634 90.1673C452.213 91.2578 453.401 92.7064 454.198 94.513C455.012 96.3196 455.419 98.5739 455.419 101.276C455.419 103.929 454.979 106.15 454.101 107.941C453.222 109.715 452.017 111.139 450.487 112.213C448.957 113.287 447.167 114.052 445.116 114.508C443.065 114.964 440.868 115.192 438.524 115.192C436.604 115.192 434.822 115.078 433.178 114.85C431.534 114.622 430.077 114.248 428.808 113.727V124.469H422.558V88.8245ZM436.962 92.389C435.904 92.389 434.96 92.4215 434.13 92.4866C433.316 92.5517 432.576 92.6413 431.908 92.7552C431.257 92.8528 430.679 92.9749 430.175 93.1214C429.67 93.2516 429.215 93.3981 428.808 93.5609V109.186C429.507 109.381 430.159 109.544 430.761 109.674C431.379 109.788 432.038 109.878 432.738 109.943C433.454 110.008 434.268 110.057 435.18 110.089C436.107 110.105 437.222 110.114 438.524 110.114C440.445 110.114 442.081 109.894 443.432 109.454C444.799 108.999 445.914 108.38 446.776 107.599C447.655 106.818 448.298 105.89 448.705 104.816C449.112 103.725 449.315 102.545 449.315 101.276C449.315 99.5504 449.039 98.1181 448.485 96.9788C447.932 95.8395 447.126 94.928 446.068 94.2444C445.01 93.5609 443.716 93.0807 442.187 92.804C440.657 92.5273 438.915 92.389 436.962 92.389Z" fill="black"/>
</g>
<defs>
<filter id="filter0_f" x="0.5" y="0.5" width="482" height="191" filterUnits="userSpaceOnUse" color-interpolation-filters="sRGB">
<feFlood flood-opacity="0" result="BackgroundImageFix"/>
<feBlend mode="normal" in="SourceGraphic" in2="BackgroundImageFix" result="shape"/>
<feGaussianBlur stdDeviation="2" result="effect1_foregroundBlur"/>
</filter>
</defs>
</svg>
